<?xml version="1.0" standalone="no"?><!DOCTYPE svg PUBLIC "-//W3C//DTD SVG 1.1//EN" "http://www.w3.org/Graphics/SVG/1.1/DTD/svg11.dtd"><svg t="1706696476067" class="icon" viewBox="0 0 1024 1024" version="1.1" xmlns="http://www.w3.org/2000/svg" p-id="22784" xmlns:xlink="http://www.w3.org/1999/xlink" width="200" height="200"><path d="M1024 170.666667v42.666666L512 384 0 213.333333V170.666667l512-170.666667z" fill="#306DFF" opacity=".5" p-id="22785"></path><path d="M896 768l128 42.666667v42.666666l-512 170.666667-512-170.666667v-42.666666l128-42.666667 384 128 384-128z m0-213.333333l128 42.666666v42.666667l-512 170.666667-512-170.666667v-42.666667l128-42.666666 384 128 384-128z m0-213.333334l128 42.666667v42.666667l-512 170.666666-512-170.666666V384l128-42.666667 384 128 384-128z" fill="#306DFF" p-id="22786"></path></svg>