<?xml version="1.0" standalone="no"?><!DOCTYPE svg PUBLIC "-//W3C//DTD SVG 1.1//EN" "http://www.w3.org/Graphics/SVG/1.1/DTD/svg11.dtd"><svg t="1706696467631" class="icon" viewBox="0 0 1024 1024" version="1.1" xmlns="http://www.w3.org/2000/svg" p-id="22629" xmlns:xlink="http://www.w3.org/1999/xlink" width="200" height="200"><path d="M498.432 530.005333a213.632 213.632 0 0 0 40.106667 282.112c90.325333 75.776 225.109333 63.786667 301.056-26.752l-309.589334-259.797333c59.733333 39.850667 58.24 29.312-4.437333-31.573333a213.632 213.632 0 0 0-40.106667-282.112C395.093333 136.106667 260.309333 148.053333 184.362667 238.634667l309.589333 259.797333c-59.733333-39.850667-58.24-29.312 4.437333 31.573333z" fill="#8EB3E6" p-id="22630"></path><path d="M510.805333 511.957333c59.776-89.6 58.794667-229.461333-25.386666-300.074666-90.282667-75.776-225.066667-63.786667-301.013334 26.752l309.589334 259.797333c-59.733333-39.850667-54.101333-35.370667 16.810666 13.525333z" fill="#3876CD" p-id="22631"></path><path d="M532.608 502.826667c63.786667-32.896 53.888-36.693333-29.781333-11.434667a213.632 213.632 0 0 0-266.24-101.674667c-109.994667 42.24-164.864 165.973333-122.453334 276.309334l377.258667-144.853334c-63.786667 32.896-53.888 36.693333 29.781333 11.434667a213.632 213.632 0 0 0 266.24 101.674667c109.994667-42.24 164.864-165.973333 122.453334-276.309334l-377.258667 144.853334z" fill="#3876CD" p-id="22632"></path><path d="M534.570667 512a213.632 213.632 0 0 0 201.130666-201.813333c6.186667-117.76-84.48-218.154667-202.538666-224.341334L510.805333 512c-17.493333 0.256-27.008 0.426667-28.629333 0.597333a213.632 213.632 0 0 0-193.877333 201.301334c-6.186667 117.674667 84.48 218.112 202.538666 224.298666L534.613333 512z" fill="#3876CD" p-id="22633"></path><path d="M534.570667 512a213.632 213.632 0 0 0 201.130666-201.813333c6.186667-117.76-84.48-218.154667-202.538666-224.341334L510.805333 512h23.765334z" fill="#8EB3E6" p-id="22634"></path><path d="M502.4 490.24a213.632 213.632 0 0 0-266.24-101.632c-109.994667 42.24-164.437333 167.04-122.026667 277.418667L512 512l-9.6-21.76z" fill="#8EB3E6" p-id="22635"></path></svg>