<?xml version="1.0" standalone="no"?><!DOCTYPE svg PUBLIC "-//W3C//DTD SVG 1.1//EN" "http://www.w3.org/Graphics/SVG/1.1/DTD/svg11.dtd"><svg t="1706696492410" class="icon" viewBox="0 0 1024 1024" version="1.1" xmlns="http://www.w3.org/2000/svg" p-id="23996" xmlns:xlink="http://www.w3.org/1999/xlink" width="200" height="200"><path d="M96 96m64 0l256 0q64 0 64 64l0 320q0 64-64 64l-256 0q-64 0-64-64l0-320q0-64 64-64Z" fill="#FFA64D" p-id="23997"></path><path d="M96 608m64 0l256 0q64 0 64 64l0 192q0 64-64 64l-256 0q-64 0-64-64l0-192q0-64 64-64Z" fill="#FF5124" p-id="23998"></path><path d="M544 96m64 0l256 0q64 0 64 64l0 192q0 64-64 64l-256 0q-64 0-64-64l0-192q0-64 64-64Z" fill="#407FFF" p-id="23999"></path><path d="M544 480m64 0l256 0q64 0 64 64l0 320q0 64-64 64l-256 0q-64 0-64-64l0-320q0-64 64-64Z" fill="#AC59FF" p-id="24000"></path></svg>