<?xml version="1.0" standalone="no"?><!DOCTYPE svg PUBLIC "-//W3C//DTD SVG 1.1//EN" "http://www.w3.org/Graphics/SVG/1.1/DTD/svg11.dtd"><svg t="1706683837247" class="icon" viewBox="0 0 1024 1024" version="1.1" xmlns="http://www.w3.org/2000/svg" p-id="54668" xmlns:xlink="http://www.w3.org/1999/xlink" width="200" height="200"><path d="M510.306563 0c-281.231451 0-510.299003 227.933555-510.299003 510.299003 0 281.231451 229.067553 510.299003 510.299003 510.299004s510.299003-229.067553 510.299004-510.299004-227.933555-510.299003-510.299004-510.299003z m196.181617 242.675526l48.761905-47.627907c20.41196-20.41196 52.163898-20.41196 72.575858 0s20.41196 52.163898 0 72.575858l-47.627907 47.627907c-20.41196 20.41196-52.163898 20.41196-72.575858 0s-20.41196-53.297896-1.133998-72.575858zM113.407339 561.328904c-28.349945 0-51.0299-22.679956-51.029901-51.029901s22.679956-51.0299 51.029901-51.0299h68.039867c28.349945 0 51.0299 22.679956 51.0299 51.0299s-22.679956 51.0299-51.0299 51.029901h-68.039867z m200.717607 217.727574l-47.627907 47.627907c-20.41196 20.41196-52.163898 20.41196-72.575858 0s-20.41196-52.163898 0-72.575858l47.627907-47.627907c20.41196-20.41196 52.163898-20.41196 72.575858 0 20.41196 20.41196 20.41196 53.297896 0 72.575858z m0-464.939092c-20.41196 20.41196-52.163898 20.41196-72.575858 0l-47.627907-47.627906c-20.41196-20.41196-20.41196-52.163898 0-72.575859s52.163898-20.41196 72.575858 0l47.627907 47.627907c20.41196 20.41196 20.41196 53.297896 0 72.575858z m247.211518 593.080842c0 28.349945-22.679956 51.0299-51.029901 51.0299s-51.0299-22.679956-51.0299-51.0299v-68.039867c0-28.349945 22.679956-51.0299 51.0299-51.0299s51.0299 22.679956 51.029901 51.0299v68.039867z m0-725.758582c0 28.349945-22.679956 51.0299-51.029901 51.0299s-51.0299-22.679956-51.0299-51.0299v-68.039867c0-28.349945 22.679956-51.0299 51.0299-51.029901s51.0299 22.679956 51.029901 51.029901v68.039867z m266.489479 646.378737c-20.41196 20.41196-52.163898 20.41196-72.575858 0l-48.761905-47.627907c-20.41196-20.41196-20.41196-52.163898 0-72.575858 20.41196-20.41196 52.163898-20.41196 72.575858 0l47.627907 47.627907c20.41196 20.41196 20.41196 52.163898 1.133998 72.575858z m79.379845-266.489479h-68.039867c-28.349945 0-51.0299-22.679956-51.0299-51.029901s22.679956-51.0299 51.0299-51.0299h68.039867c28.349945 0 51.0299 22.679956 51.0299 51.0299s-22.679956 51.0299-51.0299 51.029901z" fill="#df2c25" p-id="54669"></path><path d="M614.63436 549.988926c30.61794 72.575858-15.875969 157.625692-94.121817 164.429679h-20.41196c-78.245847-6.803987-125.873754-91.853821-94.121816-164.429679l104.327796-243.809524L614.63436 549.988926z" fill="#ffffff" p-id="54670"></path></svg>