<?xml version="1.0" standalone="no"?><!DOCTYPE svg PUBLIC "-//W3C//DTD SVG 1.1//EN" "http://www.w3.org/Graphics/SVG/1.1/DTD/svg11.dtd"><svg t="1706683578518" class="icon" viewBox="0 0 1024 1024" version="1.1" xmlns="http://www.w3.org/2000/svg" p-id="40307" xmlns:xlink="http://www.w3.org/1999/xlink" width="200" height="200"><path d="M235.8 67.9C153 87.4 87.4 153 67.9 235.8L235.8 67.9z" fill="#FF6968" p-id="40308"></path><path d="M301.7 62H287C163.3 62 62 163.3 62 287v14.7L301.7 62z" fill="#FF6867" p-id="40309"></path><path d="M361.7 62H287C163.3 62 62 163.3 62 287v74.7L361.7 62z" fill="#FF6866" p-id="40310"></path><path d="M421.6 62H287C163.3 62 62 163.3 62 287v134.6L421.6 62z" fill="#FF6765" p-id="40311"></path><path d="M481.6 62H287c-19.4 0-38.3 2.5-56.3 7.2L69.2 230.7c-4.7 18-7.2 36.9-7.2 56.3v194.6L481.6 62z" fill="#FF6764" p-id="40312"></path><path d="M62 541.6L541.6 62H297.9L62 297.9z" fill="#FF6763" p-id="40313"></path><path d="M62 601.6L601.6 62H357.8L62 357.8z" fill="#FF6662" p-id="40314"></path><path d="M62 417.8v243.7L661.5 62H417.8z" fill="#FF6661" p-id="40315"></path><path d="M62 477.8v243.7L721.5 62H477.8z" fill="#FF6560" p-id="40316"></path><path d="M737 62H537.8L62 537.8V737c0 13.9 1.3 27.5 3.7 40.8l712-712C764.5 63.3 750.9 62 737 62z" fill="#FF655F" p-id="40317"></path><path d="M737 62H597.7L62 597.7V737c0 30.8 6.3 60.1 17.6 86.9L823.9 79.6C797.1 68.3 767.8 62 737 62z" fill="#FF655E" p-id="40318"></path><path d="M862.8 100.7C826.8 76.3 783.5 62 737 62h-79.3L62 657.7V737c0 46.5 14.3 89.8 38.7 125.8l762.1-762.1z" fill="#FF645D" p-id="40319"></path><path d="M895.6 127.8C854.9 87.2 798.7 62 737 62h-19.3L62 717.7V737c0 61.7 25.2 117.9 65.8 158.6l767.8-767.8z" fill="#FF645C" p-id="40320"></path><path d="M65.2 774.5C75.6 835.8 111 889 160.6 922.8l762.3-762.3c-33.9-49.5-87-85-148.3-95.4L65.2 774.5z" fill="#FF635B" p-id="40321"></path><path d="M78.5 821.2c22.4 55.1 66.2 99.6 120.8 122.9l744.8-744.8c-23.3-54.7-67.8-98.4-122.9-120.8L78.5 821.2z" fill="#FF635A" p-id="40322"></path><path d="M99.2 860.5c33 49.9 85.3 86.1 146.1 97.6l712.8-712.8c-11.5-60.8-47.7-113.1-97.6-146.1L99.2 860.5z" fill="#FF635A" p-id="40323"></path><path d="M962 287c0-63-26.2-120.1-68.3-161.1L125.9 893.7C166.9 935.8 224 962 287 962h14.3L962 301.3V287z" fill="#FF6259" p-id="40324"></path><path d="M962 287c0-47.8-15.1-92.2-40.7-128.7l-763 763C194.8 946.9 239.2 962 287 962h74.3L962 361.3V287z" fill="#FF6258" p-id="40325"></path><path d="M962 287c0-32.1-6.8-62.7-19.1-90.4L196.6 942.9c27.7 12.3 58.3 19.1 90.4 19.1h134.3L962 421.3V287z" fill="#FF6157" p-id="40326"></path><path d="M287 962h194.2L962 481.2V287c0-15.4-1.6-30.4-4.5-44.9L242.1 957.5c14.5 2.9 29.5 4.5 44.9 4.5z" fill="#FF6156" p-id="40327"></path><path d="M541.2 962L962 541.2V297.5L297.5 962z" fill="#FF6155" p-id="40328"></path><path d="M601.2 962L962 601.2V357.5L357.5 962z" fill="#FF6054" p-id="40329"></path><path d="M661.2 962L962 661.2V417.4L417.4 962z" fill="#FF6053" p-id="40330"></path><path d="M721.1 962L962 721.1V477.4L477.4 962z" fill="#FF5F52" p-id="40331"></path><path d="M962 737V537.4L537.4 962H737c17.1 0 33.7-1.9 49.7-5.6l169.7-169.7c3.7-16 5.6-32.6 5.6-49.7z" fill="#FF5F51" p-id="40332"></path><path d="M962 597.4L597.4 962H737c123.8 0 225-101.3 225-225V597.4z" fill="#FF5F50" p-id="40333"></path><path d="M962 657.3L657.3 962H737c123.8 0 225-101.3 225-225v-79.7z" fill="#FF5E4F" p-id="40334"></path><path d="M962 717.3L717.3 962H737c123.8 0 225-101.3 225-225v-19.7z" fill="#FF5E4E" p-id="40335"></path><path d="M957.5 781.8L781.8 957.5c88-18 157.7-87.7 175.7-175.7z" fill="#FF5D4D" p-id="40336"></path><path d="M512 512m-243 0a243 243 0 1 0 486 0 243 243 0 1 0-486 0Z" fill="#FFE9E9" p-id="40337"></path><path d="M512 512l-224.5 93c-25.7-62-23.8-128.5 0-186 36.4 15.1 224.5 93 224.5 93zM512 512l93 224.5c-62 25.7-128.5 23.8-186 0 15.1-36.4 93-224.5 93-224.5zM512 512l224.5-93c25.7 62 23.8 128.5 0 186-36.4-15.1-224.5-93-224.5-93zM512 512l-93-224.5c62-25.7 128.5-23.8 186 0-15.1 36.4-93 224.5-93 224.5z" fill="#FFCDCB" p-id="40338"></path><path d="M556.1 512L512 556.1 467.9 512l39.7-194.4c1-4.8 7.8-4.8 8.8 0L556.1 512z" fill="#FFFFFF" p-id="40339"></path></svg>