<?xml version="1.0" standalone="no"?><!DOCTYPE svg PUBLIC "-//W3C//DTD SVG 1.1//EN" "http://www.w3.org/Graphics/SVG/1.1/DTD/svg11.dtd"><svg t="1706681462623" class="icon" viewBox="0 0 1024 1024" version="1.1" xmlns="http://www.w3.org/2000/svg" p-id="9972" xmlns:xlink="http://www.w3.org/1999/xlink" width="200" height="200"><path d="M4.061867 0h1010.346666v1024H4.061867z" fill="#FFFFFF" p-id="9973"></path><path d="M508.791467 935.253333c-242.346667 0-440.32-194.56-440.32-433.493333S266.4448 68.266667 508.791467 68.266667c242.346667 0 440.32 194.56 440.32 433.493333s-197.973333 433.493333-440.32 433.493333z m0-901.12c-259.413333 0-471.04 208.213333-471.04 467.626667 0 256 211.626667 464.213333 471.04 464.213333 259.413333 0 471.04-208.213333 471.04-464.213333 0-259.413333-211.626667-467.626667-471.04-467.626667z" fill="#EE5F2D" p-id="9974"></path><path d="M508.791467 983.04c-269.653333 0-488.106667-215.04-488.106667-481.28S239.138133 17.066667 508.791467 17.066667s488.106667 215.04 488.106666 481.28-218.453333 484.693333-488.106666 484.693333z m0-897.706667c-232.106667 0-423.253333 184.32-423.253334 416.426667s191.146667 416.426667 423.253334 416.426667 423.253333-187.733333 423.253333-416.426667-191.146667-416.426667-423.253333-416.426667z" fill="#EE5F2D" p-id="9975"></path><path d="M334.711467 501.76l-290.133334-3.413333v3.413333c0 81.92 23.893333 160.426667 61.44 228.693333l249.173334-143.36c-10.24-27.306667-20.48-58.026667-20.48-85.333333z m88.746666-150.186667l-139.946666-245.76c-71.68 40.96-133.12 95.573333-174.08 167.253334l249.173333 143.36c17.066667-27.306667 37.546667-47.786667 64.853333-64.853334z m174.08 3.413334l139.946667-238.933334c-68.266667-40.96-146.773333-64.853333-228.693333-64.853333v279.893333c30.72 0 61.44 6.826667 88.746666 23.893334z m-320.853333 535.893333c68.266667 37.546667 146.773333 58.026667 225.28 58.026667h6.826667v-279.893334c-30.72 0-61.44-6.826667-88.746667-23.893333l-143.36 245.76z m621.226667-610.986667l-238.933334 136.533334c13.653333 27.306667 23.893333 54.613333 23.893334 85.333333h273.066666v-3.413333c0-78.506667-23.893333-153.6-58.026666-218.453334z m-303.786667 368.64l136.533333 238.933334c68.266667-40.96 126.293333-98.986667 163.84-167.253334l-238.933333-136.533333c-13.653333 27.306667-34.133333 51.2-61.44 64.853333z" fill="#EE5F2D" p-id="9976"></path><path d="M635.0848 501.76c0-34.133333-13.653333-64.853333-37.546667-88.746667-23.893333-23.893333-54.613333-37.546667-88.746666-37.546666l-78.506667-146.773334 20.48 160.426667c-40.96 20.48-64.853333 64.853333-64.853333 112.64 3.413333 68.266667 58.026667 119.466667 126.293333 119.466667s119.466667-54.613333 122.88-119.466667z" fill="#EE5F2D" p-id="9977"></path></svg>