<?xml version="1.0" standalone="no"?><!DOCTYPE svg PUBLIC "-//W3C//DTD SVG 1.1//EN" "http://www.w3.org/Graphics/SVG/1.1/DTD/svg11.dtd"><svg t="1706683771144" class="icon" viewBox="0 0 1024 1024" version="1.1" xmlns="http://www.w3.org/2000/svg" p-id="48891" xmlns:xlink="http://www.w3.org/1999/xlink" width="200" height="200"><path d="M512 512m-512 0a512 512 0 1 0 1024 0 512 512 0 1 0-1024 0Z" fill="#F05B5B" p-id="48892"></path><path d="M366.788923 379.510154l-65.811692-65.851077-32.039385-32.059077A333.686154 333.686154 0 0 0 177.230769 503.020308h138.436923a195.012923 195.012923 0 0 1 51.140923-123.510154z m-51.160615 141.430154H177.230769a333.686154 333.686154 0 0 0 91.707077 221.420307l97.870769-97.870769a195.012923 195.012923 0 0 1-51.160615-123.510154v-0.039384z m63.862154-154.171077a197.316923 197.316923 0 0 1 30.759384-23.000616l1.673846-60.731077 48.128 39.345231a196.923077 196.923077 0 0 1 42.929231-6.695384V177.230769a333.686154 333.686154 0 0 0-221.341538 91.707077l32.059077 32.039385 65.792 65.792zM742.4 268.937846A333.686154 333.686154 0 0 0 520.979692 177.230769v138.436923a195.012923 195.012923 0 0 1 123.510154 51.140923l97.870769-97.870769z m-85.188923 375.552l97.870769 97.870769A333.686154 333.686154 0 0 0 846.769231 520.979692h-138.436923a195.012923 195.012923 0 0 1-51.140923 123.510154z m97.870769-362.850461l-97.870769 97.870769a195.012923 195.012923 0 0 1 51.160615 123.510154H846.769231a333.705846 333.705846 0 0 0-91.707077-221.380923z m-375.552 375.532307l-97.870769 97.890462A333.686154 333.686154 0 0 0 503.020308 846.769231v-138.436923a195.012923 195.012923 0 0 1-123.510154-51.140923z m264.979692 0a195.012923 195.012923 0 0 1-123.510153 51.180308V846.769231a333.686154 333.686154 0 0 0 221.400615-91.707077l-97.870769-97.870769z m-179.101538-234.496h30.129231v91.234462h-30.129231v-91.234462z m-46.198154 91.234462h27.963077l12.406154-49.112616H431.458462l-12.248616 49.112616z m134.065231 94.660923c1.851077 0.531692 3.780923 0.827077 5.710769 0.827077h39.030154l2.914462-22.705231H568.910769l-29.538461-30.247385h64.846769v-24.083692h-77.272615v-11.441231l-29.892924-2.146461v13.587692h-76.110769v24.083692h63.684923l-29.538461 30.28677h-32l3.091692 22.70523h38.636308c2.048 0.019692 4.076308-0.256 6.025846-0.827076a11.874462 11.874462 0 0 0 5.021538-3.012924L512 568.280615l36.096 37.277539a11.776 11.776 0 0 0 5.159385 3.012923z m-25.954462-147.062154l2.520616-8.546461H575.015385v11.067076l-21.07077 23.88677-12.445538-22.902154H511.606154l14.178461 25.796923h-24.457846l2.914462 22.724923h56.477538c2.363077 0 4.686769-0.393846 6.892308-1.161846a11.716923 11.716923 0 0 0 5.533538-3.879385l28.928-32.433231a11.657846 11.657846 0 0 0 2.717539-6.971076v-25.442462a11.086769 11.086769 0 0 0-1.457231-5.632 14.119385 14.119385 0 0 0-3.780923-4.253538 16.659692 16.659692 0 0 0-5.238154-2.619077 20.164923 20.164923 0 0 0-5.868308-0.84677H536.812308l2.323692-7.522461h-28.297846l-11.657846 38.813538h28.16l-0.039385-0.078769z m-80.167384-38.242461h-27.963077l12.228923 36.489846h28.16l-12.425846-36.489846z" fill="#FFFFFF" p-id="48893"></path></svg>