<?xml version="1.0" standalone="no"?><!DOCTYPE svg PUBLIC "-//W3C//DTD SVG 1.1//EN" "http://www.w3.org/Graphics/SVG/1.1/DTD/svg11.dtd"><svg t="1706720586424" class="icon" viewBox="0 0 1024 1024" version="1.1" xmlns="http://www.w3.org/2000/svg" p-id="9909" xmlns:xlink="http://www.w3.org/1999/xlink" width="200" height="200"><path d="M512.069953 466.033634c-10.113135-0.369749-19.846527-2.957992-28.850415-7.514898L117.977481 286.625425c-30.709153-13.680713-44.509785-49.686271-30.829071-80.395424 6.165814-13.810625 17.138366-24.783176 30.829071-30.829072L465.08185 11.152429a110.230171 110.230171 0 0 1 93.716381 0L906.032512 175.400929c30.69916 13.680713 44.509785 49.686271 30.829072 80.395424-6.165814 13.810625-17.138366 24.783176-30.829072 30.829072L540.800449 458.388824c-8.883969 4.686818-18.747273 7.275061-28.730496 7.64481z" fill="#0F8BFF" p-id="9910"></path><path d="M417.733992 1023.994863a56.841413 56.841413 0 0 1-26.881751-6.7754L60.886238 862.474511a62.693441 62.693441 0 0 1-33.667146-56.231827V411.660545c0.119919-22.194933 11.96188-42.541121 30.948991-53.883421a57.682842 57.682842 0 0 1 56.841413 0l329.356417 154.625033c19.85652 10.732714 32.557898 31.318739 33.417315 53.883421v395.0818a63.829669 63.829669 0 0 1-30.69916 53.883421c-8.883969 5.296405-18.987111 8.384308-29.350076 8.744064zM606.276001 1023.994863c-10.233053 0-20.356181-2.708162-29.350076-7.764728A63.838663 63.838663 0 0 1 546.226765 962.346713V566.155667c0.489668-22.43477 12.821296-42.91087 32.308068-53.883422l331.574911-155.614361c17.518108-9.243725 38.723712-8.754057 55.732166 1.359077 19.117022 11.222382 30.829072 31.688488 30.948991 53.883421v394.342302c0.489668 23.30418-11.96188 45.009445-32.308068 56.231827l-331.205162 154.864871c-8.384308 4.446981-17.638026 6.785394-27.00167 6.655481z" fill="#C9D7DE" p-id="9911"></path></svg>